<?xml version="1.0" encoding="UTF-8"?>
<svg xmlns="http://www.w3.org/2000/svg" xmlns:xlink="http://www.w3.org/1999/xlink" width="375pt" height="374.999991pt" viewBox="0 0 375 374.999991" version="1.2">
<defs>
<clipPath id="clip1">
  <path d="M 124.019531 113 L 231 113 L 231 262.5 L 124.019531 262.5 Z M 124.019531 113 "/>
</clipPath>
</defs>
<g id="surface1">
<path style=" stroke:none;fill-rule:nonzero;fill:rgb(100%,100%,100%);fill-opacity:1;" d="M 150.480469 179.621094 C 149.722656 179.390625 148.988281 179.105469 148.246094 178.835938 C 148.824219 180.667969 149.417969 182.484375 150.210938 184.238281 C 150.671875 185.261719 151.105469 186.894531 152.503906 186.308594 C 153.375 185.945312 152.980469 183.558594 152.988281 182.835938 C 152.992188 182.28125 153.121094 181.621094 153.035156 181.085938 C 152.882812 180.132812 151.207031 179.835938 150.480469 179.621094 C 150.257812 179.554688 151.675781 179.972656 150.480469 179.621094 Z M 150.480469 179.621094 "/>
<path style=" stroke:none;fill-rule:nonzero;fill:rgb(100%,100%,100%);fill-opacity:1;" d="M 227.464844 154.945312 C 227.316406 153.523438 226.898438 152.109375 226.707031 150.683594 C 226.386719 148.3125 226.207031 145.925781 225.945312 143.546875 C 225.464844 139.132812 224.640625 134.632812 222.179688 130.855469 C 218.023438 124.472656 209.21875 123.285156 203.011719 119.75 C 199.082031 117.515625 194.976562 115.5625 190.328125 116.117188 C 185.726562 116.664062 182.480469 119.664062 179.1875 122.644531 C 176.148438 125.394531 172.917969 126.929688 168.773438 127.019531 C 167.078125 127.058594 165.378906 126.878906 163.683594 127.078125 C 161.390625 127.34375 159.523438 128.460938 157.792969 129.933594 C 154.359375 132.859375 151.238281 136.3125 149.066406 140.292969 C 148.160156 141.953125 147.21875 143.824219 147.164062 145.757812 C 147.117188 147.632812 147.808594 149.394531 148.605469 151.054688 C 149.363281 152.632812 150.191406 154.210938 150.558594 155.941406 C 151.035156 158.160156 150.402344 160.214844 149.414062 162.195312 C 148.480469 164.070312 147.632812 165.921875 147.328125 168.015625 C 147.152344 169.230469 148.226562 169.472656 149.21875 169.917969 C 150.152344 170.335938 151.421875 171.058594 152.476562 171.058594 C 153.984375 171.023438 153.953125 167.476562 154.074219 166.535156 C 154.285156 164.855469 155.566406 163 157.214844 162.46875 C 159.25 161.816406 160.535156 163.730469 160.960938 165.457031 C 161.433594 167.394531 161.753906 169.179688 163.15625 170.699219 C 164.367188 172.019531 166.003906 172.8125 167.699219 173.300781 C 171.484375 174.390625 175.578125 174.078125 179.292969 175.429688 C 183.214844 176.851562 184.925781 180.488281 186.703125 183.96875 C 188.78125 188.03125 192.523438 190.011719 195.492188 193.277344 C 201.269531 199.621094 200.15625 209.453125 200.160156 217.359375 C 200.167969 222.359375 199.863281 227.359375 200.042969 232.359375 C 200.097656 234.582031 199.816406 237.902344 201.722656 239.480469 C 204.5 241.78125 206.375 238.023438 206.582031 235.722656 C 206.863281 232.570312 206.320312 229.328125 205.722656 226.242188 C 204.34375 219.152344 202.453125 212.226562 202.371094 204.945312 C 202.316406 200.300781 202.671875 195.5625 203.179688 190.945312 C 203.488281 188.167969 204.144531 180.085938 208.773438 181.460938 C 210.488281 181.96875 211.394531 184.222656 213.265625 184.222656 C 214.425781 184.222656 215.167969 183.179688 215.617188 182.230469 C 217.082031 179.132812 216.664062 175.476562 218.230469 172.425781 C 218.863281 171.195312 220.054688 169.988281 221.5625 170.257812 C 223.308594 170.570312 224.925781 172.023438 226.582031 170.585938 C 229.609375 167.960938 228.597656 162.328125 228.128906 158.878906 C 227.949219 157.5625 227.71875 156.25 227.464844 154.945312 C 227.457031 154.875 228.207031 158.75 227.464844 154.945312 Z M 227.464844 154.945312 "/>
<path style=" stroke:none;fill-rule:nonzero;fill:rgb(99.21875%,79.60968%,2.749634%);fill-opacity:1;" d="M 133.421875 192.011719 C 133.671875 187.886719 134.132812 183.207031 136.519531 179.914062 C 138.09375 177.742188 140.15625 176.683594 142.824219 176.683594 C 145.234375 176.683594 148.132812 177.558594 151.441406 179.285156 L 153.351562 180.28125 L 153.484375 171.164062 L 152.761719 170.78125 C 149.011719 168.804688 144.691406 166.691406 140.761719 166.691406 L 140.757812 166.691406 C 136.144531 166.738281 132.308594 169.488281 129.953125 174.4375 C 127.710938 179.148438 126.957031 184.472656 126.554688 188.585938 C 126.082031 193.394531 126.128906 198.296875 126.703125 203.152344 C 127.605469 210.816406 129.628906 221.847656 136.765625 229.199219 C 140.144531 232.679688 144.769531 235.140625 150.90625 236.722656 L 152.539062 237.144531 L 152.675781 227.691406 L 151.6875 227.414062 C 149.765625 226.878906 148.070312 226.183594 146.648438 225.339844 C 142.910156 223.125 139.996094 220.148438 137.972656 216.480469 C 135.191406 211.425781 133.699219 205.320312 133.28125 197.269531 C 133.199219 195.699219 133.300781 194.039062 133.398438 192.433594 Z M 133.421875 192.011719 "/>
<path style=" stroke:none;fill-rule:nonzero;fill:rgb(99.21875%,79.60968%,2.749634%);fill-opacity:1;" d="M 222.375 209.21875 C 221.832031 199.472656 221.347656 189.726562 220.859375 179.976562 C 220.859375 179.976562 220.480469 172.457031 220.476562 172.363281 C 220.472656 172.304688 218.132812 171.882812 217.992188 171.847656 C 216.992188 173.535156 216.941406 175.761719 216.710938 177.652344 C 216.304688 180.96875 214.113281 186.699219 210.328125 182.6875 C 205.46875 177.507812 204 185.992188 203.453125 189.570312 C 203.117188 191.761719 202.839844 193.96875 202.574219 196.167969 C 201.726562 203.210938 202.152344 210.535156 203.839844 217.933594 C 204.769531 222.023438 205.613281 226.144531 206.007812 230.328125 C 206.226562 232.648438 206.914062 236.207031 205.414062 238.195312 C 202.742188 241.738281 199.742188 237.128906 199.363281 234.445312 C 197.648438 222.257812 201.734375 209.355469 197.722656 197.417969 C 196.410156 193.507812 193.761719 191.050781 191.160156 188.867188 C 189.277344 187.285156 187.707031 185.4375 186.535156 183.273438 C 185.277344 180.945312 184.363281 178.390625 182.378906 176.550781 C 180.398438 174.71875 177.761719 173.671875 175.128906 173.246094 C 171.453125 172.648438 167.347656 173.074219 164.121094 170.875 C 162.90625 170.042969 161.957031 168.964844 161.332031 167.625 C 160.441406 165.726562 159.417969 158.957031 155.773438 162.457031 C 152.859375 165.246094 153.550781 169.949219 153.511719 173.585938 C 153.460938 179.152344 153.40625 184.722656 153.347656 190.285156 C 153.277344 197.398438 153.207031 204.511719 153.136719 211.621094 C 153.070312 218.542969 153 225.46875 152.933594 232.390625 C 152.878906 237.800781 152.828125 243.210938 152.773438 248.621094 C 152.738281 252.097656 153.636719 252.773438 156.761719 254.0625 C 158.886719 254.9375 161.019531 255.785156 163.210938 256.496094 C 176.621094 260.851562 191.160156 260.210938 205.027344 259.09375 C 210.902344 258.621094 215.832031 256.890625 221.269531 254.78125 C 222.335938 254.367188 223.488281 254.257812 224.101562 253.292969 C 225.296875 251.421875 222.464844 210.847656 222.375 209.21875 Z M 222.375 209.21875 "/>
<path style=" stroke:none;fill-rule:nonzero;fill:rgb(13.729858%,12.159729%,12.548828%);fill-opacity:1;" d="M 152.007812 186.746094 C 152.351562 186.734375 152.625 186.265625 153.0625 186.597656 C 152.839844 186.433594 152.640625 186.148438 152.460938 185.847656 C 152.339844 186.390625 152.195312 186.738281 152.007812 186.746094 Z M 152.007812 186.746094 "/>
<path style=" stroke:none;fill-rule:nonzero;fill:rgb(13.729858%,12.159729%,12.548828%);fill-opacity:1;" d="M 155 168.105469 C 154.96875 168.246094 154.941406 168.390625 154.921875 168.53125 C 154.957031 168.449219 154.992188 168.367188 155.027344 168.285156 C 155.023438 168.234375 155.019531 168.183594 155.019531 168.132812 C 155.011719 168.125 155.007812 168.113281 155 168.105469 Z M 155 168.105469 "/>
<path style=" stroke:none;fill-rule:nonzero;fill:rgb(13.729858%,12.159729%,12.548828%);fill-opacity:1;" d="M 155.015625 168.019531 C 155.007812 168.046875 155.007812 168.078125 155 168.105469 C 155.007812 168.113281 155.011719 168.125 155.019531 168.132812 C 155.019531 168.09375 155.015625 168.058594 155.015625 168.019531 Z M 155.015625 168.019531 "/>
<path style=" stroke:none;fill-rule:nonzero;fill:rgb(13.729858%,12.159729%,12.548828%);fill-opacity:1;" d="M 154.679688 168.488281 C 154.761719 168.320312 154.828125 168.140625 154.902344 167.96875 C 154.804688 167.828125 154.707031 167.683594 154.605469 167.542969 C 154.632812 167.859375 154.65625 168.171875 154.679688 168.488281 Z M 154.679688 168.488281 "/>
<path style=" stroke:none;fill-rule:nonzero;fill:rgb(13.729858%,12.159729%,12.548828%);fill-opacity:1;" d="M 155.027344 168.285156 C 155.039062 168.253906 155.050781 168.226562 155.066406 168.195312 C 155.046875 168.175781 155.035156 168.152344 155.019531 168.132812 C 155.023438 168.183594 155.023438 168.234375 155.027344 168.285156 Z M 155.027344 168.285156 "/>
<path style=" stroke:none;fill-rule:nonzero;fill:rgb(13.729858%,12.159729%,12.548828%);fill-opacity:1;" d="M 152.84375 173.09375 C 152.855469 173.648438 152.929688 176.75 152.878906 179.851562 C 153.726562 179.875 154.140625 182.046875 154.902344 182.1875 C 154.980469 179.324219 154.492188 172.507812 154.382812 169.644531 C 153.589844 169.238281 153.574219 170.761719 152.671875 170.585938 C 152.734375 171.457031 152.832031 172.328125 152.84375 173.09375 Z M 152.84375 173.09375 "/>
<path style=" stroke:none;fill-rule:nonzero;fill:rgb(13.729858%,12.159729%,12.548828%);fill-opacity:1;" d="M 212.304688 133.03125 C 211.277344 133.03125 210.425781 134.042969 210.238281 135.378906 C 210.386719 134.480469 210.96875 133.8125 211.667969 133.8125 C 212.480469 133.8125 213.136719 134.71875 213.136719 135.832031 C 213.136719 136.953125 212.480469 137.859375 211.667969 137.859375 C 210.867188 137.859375 210.222656 136.980469 210.203125 135.882812 C 210.199219 135.898438 210.199219 135.914062 210.199219 135.933594 C 210.199219 137.53125 211.140625 138.828125 212.304688 138.828125 C 213.46875 138.828125 214.410156 137.53125 214.410156 135.933594 C 214.410156 134.328125 213.46875 133.03125 212.304688 133.03125 Z M 212.304688 133.03125 "/>
<path style=" stroke:none;fill-rule:nonzero;fill:rgb(13.729858%,12.159729%,12.548828%);fill-opacity:1;" d="M 202.039062 141.40625 C 201.203125 141.40625 200.507812 142.230469 200.355469 143.320312 C 200.476562 142.585938 200.949219 142.039062 201.519531 142.039062 C 202.183594 142.039062 202.71875 142.777344 202.71875 143.6875 C 202.71875 144.601562 202.183594 145.339844 201.519531 145.339844 C 200.867188 145.339844 200.339844 144.621094 200.324219 143.726562 C 200.324219 143.742188 200.320312 143.757812 200.320312 143.769531 C 200.320312 145.074219 201.089844 146.132812 202.039062 146.132812 C 202.988281 146.132812 203.757812 145.074219 203.757812 143.769531 C 203.757812 142.460938 202.988281 141.40625 202.039062 141.40625 Z M 202.039062 141.40625 "/>
<path style=" stroke:none;fill-rule:nonzero;fill:rgb(13.729858%,12.159729%,12.548828%);fill-opacity:1;" d="M 220.605469 145.675781 C 220.199219 145.675781 219.859375 146.078125 219.785156 146.605469 C 219.84375 146.25 220.074219 145.984375 220.351562 145.984375 C 220.675781 145.984375 220.933594 146.34375 220.933594 146.785156 C 220.933594 147.230469 220.675781 147.589844 220.351562 147.589844 C 220.035156 147.589844 219.777344 147.238281 219.769531 146.804688 C 219.769531 146.8125 219.769531 146.820312 219.769531 146.824219 C 219.769531 147.460938 220.144531 147.972656 220.605469 147.972656 C 221.066406 147.972656 221.441406 147.460938 221.441406 146.824219 C 221.441406 146.191406 221.066406 145.675781 220.605469 145.675781 Z M 220.605469 145.675781 "/>
<path style=" stroke:none;fill-rule:nonzero;fill:rgb(13.729858%,12.159729%,12.548828%);fill-opacity:1;" d="M 221.191406 136.816406 C 220.648438 136.816406 220.195312 137.355469 220.09375 138.066406 C 220.171875 137.589844 220.484375 137.230469 220.851562 137.230469 C 221.285156 137.230469 221.636719 137.714844 221.636719 138.308594 C 221.636719 138.902344 221.285156 139.386719 220.851562 139.386719 C 220.429688 139.386719 220.082031 138.917969 220.074219 138.335938 C 220.074219 138.34375 220.070312 138.351562 220.070312 138.359375 C 220.070312 139.210938 220.574219 139.90625 221.191406 139.90625 C 221.8125 139.90625 222.316406 139.210938 222.316406 138.359375 C 222.316406 137.507812 221.8125 136.816406 221.191406 136.816406 Z M 221.191406 136.816406 "/>
<path style=" stroke:none;fill-rule:nonzero;fill:rgb(13.729858%,12.159729%,12.548828%);fill-opacity:1;" d="M 189.636719 160.035156 C 188.800781 160.035156 188.105469 160.855469 187.953125 161.949219 C 188.078125 161.214844 188.550781 160.667969 189.117188 160.667969 C 189.78125 160.667969 190.316406 161.40625 190.316406 162.316406 C 190.316406 163.226562 189.78125 163.96875 189.117188 163.96875 C 188.464844 163.96875 187.9375 163.25 187.921875 162.355469 C 187.921875 162.371094 187.921875 162.382812 187.921875 162.398438 C 187.921875 163.703125 188.691406 164.757812 189.636719 164.757812 C 190.585938 164.757812 191.351562 163.703125 191.351562 162.398438 C 191.351562 161.089844 190.585938 160.035156 189.636719 160.035156 Z M 189.636719 160.035156 "/>
<path style=" stroke:none;fill-rule:nonzero;fill:rgb(13.729858%,12.159729%,12.548828%);fill-opacity:1;" d="M 193.097656 165.613281 C 192.554688 165.613281 192.101562 166.152344 192 166.863281 C 192.082031 166.382812 192.390625 166.027344 192.761719 166.027344 C 193.195312 166.027344 193.546875 166.507812 193.546875 167.105469 C 193.546875 167.699219 193.195312 168.179688 192.761719 168.179688 C 192.335938 168.179688 191.992188 167.714844 191.980469 167.128906 C 191.980469 167.136719 191.980469 167.148438 191.980469 167.15625 C 191.980469 168.007812 192.480469 168.699219 193.097656 168.699219 C 193.71875 168.699219 194.222656 168.007812 194.222656 167.15625 C 194.222656 166.304688 193.71875 165.613281 193.097656 165.613281 Z M 193.097656 165.613281 "/>
<path style=" stroke:none;fill-rule:nonzero;fill:rgb(13.729858%,12.159729%,12.548828%);fill-opacity:1;" d="M 196.738281 173.378906 C 195.324219 173.378906 194.152344 174.769531 193.894531 176.609375 C 194.105469 175.375 194.902344 174.449219 195.863281 174.449219 C 196.980469 174.449219 197.882812 175.695312 197.882812 177.234375 C 197.882812 178.769531 196.980469 180.019531 195.863281 180.019531 C 194.761719 180.019531 193.871094 178.808594 193.84375 177.300781 C 193.84375 177.324219 193.835938 177.347656 193.835938 177.367188 C 193.835938 179.570312 195.136719 181.355469 196.738281 181.355469 C 198.339844 181.355469 199.636719 179.570312 199.636719 177.367188 C 199.636719 175.164062 198.339844 173.378906 196.738281 173.378906 Z M 196.738281 173.378906 "/>
<path style=" stroke:none;fill-rule:nonzero;fill:rgb(13.729858%,12.159729%,12.548828%);fill-opacity:1;" d="M 222.015625 157.179688 C 221.46875 157.179688 221.015625 157.71875 220.917969 158.429688 C 220.996094 157.953125 221.304688 157.59375 221.675781 157.59375 C 222.109375 157.59375 222.460938 158.078125 222.460938 158.671875 C 222.460938 159.265625 222.109375 159.75 221.675781 159.75 C 221.25 159.75 220.90625 159.28125 220.894531 158.695312 C 220.894531 158.707031 220.894531 158.714844 220.894531 158.722656 C 220.894531 159.574219 221.394531 160.269531 222.015625 160.269531 C 222.636719 160.269531 223.140625 159.574219 223.140625 158.722656 C 223.140625 157.871094 222.636719 157.179688 222.015625 157.179688 Z M 222.015625 157.179688 "/>
<path style=" stroke:none;fill-rule:nonzero;fill:rgb(13.729858%,12.159729%,12.548828%);fill-opacity:1;" d="M 200.699219 165.335938 C 199.726562 165.335938 198.921875 166.289062 198.746094 167.554688 C 198.886719 166.703125 199.4375 166.070312 200.097656 166.070312 C 200.867188 166.070312 201.488281 166.925781 201.488281 167.984375 C 201.488281 169.039062 200.867188 169.898438 200.097656 169.898438 C 199.339844 169.898438 198.730469 169.066406 198.707031 168.03125 C 198.707031 168.046875 198.707031 168.058594 198.707031 168.078125 C 198.707031 169.589844 199.597656 170.816406 200.699219 170.816406 C 201.800781 170.816406 202.691406 169.589844 202.691406 168.078125 C 202.691406 166.558594 201.800781 165.335938 200.699219 165.335938 Z M 200.699219 165.335938 "/>
<path style=" stroke:none;fill-rule:nonzero;fill:rgb(95.689392%,94.898987%,67.449951%);fill-opacity:1;" d="M 159.460938 175.917969 L 158.941406 242.558594 C 158.941406 242.558594 172.222656 251.574219 200.089844 247.519531 C 200.089844 247.519531 164.800781 248.4375 166.753906 231.058594 L 165.710938 179.835938 C 165.710938 179.835938 161.675781 178.660156 159.460938 175.917969 Z M 159.460938 175.917969 "/>
<path style=" stroke:none;fill-rule:nonzero;fill:rgb(95.689392%,94.898987%,67.449951%);fill-opacity:1;" d="M 213.238281 188.460938 C 213.238281 188.460938 216.363281 188.460938 217.535156 186.109375 L 219.488281 244.515625 Z M 213.238281 188.460938 "/>
<path style=" stroke:none;fill-rule:nonzero;fill:rgb(95.689392%,94.898987%,67.449951%);fill-opacity:1;" d="M 148.589844 173.5625 C 148.589844 173.5625 136.871094 168.664062 131.207031 181.601562 C 131.207031 181.601562 134.527344 162.980469 148.589844 173.5625 Z M 148.589844 173.5625 "/>
<path style=" stroke:none;fill-rule:nonzero;fill:rgb(95.689392%,94.898987%,67.449951%);fill-opacity:1;" d="M 131.988281 211 C 131.988281 211 133.550781 225.699219 148.199219 232.167969 C 148.199219 232.167969 133.15625 230.40625 131.988281 211 Z M 131.988281 211 "/>
<path style=" stroke:none;fill-rule:nonzero;fill:rgb(13.729858%,12.159729%,12.548828%);fill-opacity:1;" d="M 188.640625 250.667969 C 179.195312 250.675781 169.097656 249.59375 160.214844 246.1875 C 167.90625 251.941406 178.683594 253.515625 188 253.789062 C 198.074219 254.085938 208.246094 251.863281 217.535156 248.042969 C 213.238281 248.527344 208.960938 249.234375 204.667969 249.78125 C 199.347656 250.457031 193.992188 250.558594 188.640625 250.667969 Z M 188.640625 250.667969 "/>
<g clip-path="url(#clip1)" clip-rule="nonzero">
<path style=" stroke:none;fill-rule:nonzero;fill:rgb(13.729858%,12.159729%,12.548828%);fill-opacity:1;" d="M 229.921875 157.46875 C 229.515625 154.476562 228.804688 151.554688 228.289062 148.585938 C 227.460938 143.835938 227.433594 138.96875 226.191406 134.289062 C 225.34375 131.140625 223.871094 128.222656 221.488281 125.976562 C 218.367188 123.035156 214.0625 121.5625 210.144531 120.027344 C 206.824219 118.722656 203.902344 116.925781 200.730469 115.363281 C 196.484375 113.277344 191.699219 112.480469 187.125 113.957031 C 184.910156 114.675781 182.847656 115.859375 181.03125 117.3125 C 179.285156 118.710938 177.867188 120.457031 176.167969 121.90625 C 173.210938 124.429688 169.992188 124.347656 166.265625 124.292969 C 163.933594 124.261719 161.554688 124.402344 159.472656 125.570312 C 157.5625 126.644531 155.898438 128.171875 154.371094 129.730469 C 151.242188 132.921875 148.410156 136.574219 146.449219 140.613281 C 144.410156 144.820312 145.488281 148.34375 147.5 152.304688 C 148.371094 154.015625 149.160156 155.96875 148.820312 157.929688 C 148.492188 159.820312 147.179688 161.433594 146.476562 163.191406 C 146.003906 164.375 145.710938 165.605469 145.53125 166.859375 C 143.980469 166.445312 142.453125 166.179688 141.070312 166.144531 C 130.882812 165.894531 127.089844 176.875 125.726562 185.214844 C 124.113281 195.117188 124.824219 205.28125 127.648438 214.902344 C 130.03125 222.851562 134.304688 230.339844 141.847656 234.308594 C 144.960938 235.945312 148.183594 236.976562 151.574219 237.59375 L 151.476562 248.46875 C 151.359375 249.085938 151.226562 250.59375 152.203125 252.367188 C 154.960938 257.355469 162.570312 259.164062 167.636719 260.355469 C 174.40625 261.945312 181.378906 262.484375 188.316406 262.484375 C 197.226562 262.484375 206.164062 261.328125 214.878906 259.464844 C 222.332031 257.871094 228.117188 252.957031 226.46875 244.523438 L 221.785156 171.554688 C 222.449219 171.800781 223.15625 172.308594 223.960938 172.53125 C 226.65625 173.285156 228.59375 171.140625 229.550781 168.859375 C 230.980469 165.460938 230.402344 161.015625 229.921875 157.46875 Z M 151.667969 226.84375 C 147.429688 225.15625 143.6875 222.535156 141.007812 218.496094 C 136.898438 212.304688 135.972656 204.78125 135.457031 197.546875 C 135.460938 194.609375 135.464844 191.648438 135.867188 188.734375 C 136.464844 184.386719 137.71875 178.859375 142.96875 178.460938 C 144.175781 178.367188 145.394531 178.46875 146.609375 178.707031 C 147.023438 180.242188 147.511719 181.761719 148.160156 183.207031 C 148.601562 184.195312 150.273438 187.992188 151.996094 188.90625 Z M 152.03125 185.089844 C 151.988281 185.011719 151.941406 184.921875 151.898438 184.855469 C 151.160156 183.628906 150.558594 182.320312 150.054688 180.976562 C 149.882812 180.507812 149.742188 180.027344 149.59375 179.550781 C 150.425781 179.855469 151.253906 180.199219 152.070312 180.585938 Z M 150.054688 177.363281 C 144.863281 175.160156 139.378906 174.628906 135.835938 179.519531 C 133.242188 183.097656 132.742188 188.046875 132.488281 192.324219 C 132.378906 194.105469 132.25 195.945312 132.34375 197.730469 C 132.699219 204.546875 133.878906 211.484375 137.203125 217.515625 C 139.371094 221.457031 142.507812 224.597656 146.363281 226.878906 C 147.925781 227.808594 149.621094 228.730469 151.398438 229.402344 C 151.910156 229.59375 150.796875 232.679688 150.53125 232.996094 C 149.699219 233.988281 148.703125 234.121094 147.46875 234.003906 C 144.070312 233.679688 140.398438 231.019531 138.105469 228.660156 C 131.738281 222.097656 129.453125 212.207031 128.414062 203.390625 C 127.855469 198.652344 127.800781 193.859375 128.265625 189.109375 C 128.722656 184.488281 129.53125 179.625 131.542969 175.402344 C 133.425781 171.445312 136.59375 168.460938 141.160156 168.417969 C 144.914062 168.382812 149.019531 170.257812 152.171875 172.191406 C 152.742188 176.683594 150.054688 177.363281 150.054688 177.363281 Z M 222.902344 236.71875 C 223.023438 243.195312 225.355469 251.546875 217.921875 255.234375 C 214.019531 257.167969 209.640625 257.703125 205.359375 258.128906 C 191.394531 259.515625 177.285156 260.144531 163.753906 255.808594 L 163.59375 255.757812 C 157.671875 254.191406 153.792969 250.683594 154.589844 244.082031 C 154.589844 244.082031 154.5 238.410156 154.566406 235.476562 C 154.929688 219.609375 155.101562 203.714844 155.097656 187.828125 C 155.09375 181.320312 155.183594 174.808594 155.265625 168.300781 C 155.460938 166.964844 155.976562 163.925781 157.601562 163.511719 C 159.367188 163.058594 159.570312 165.859375 159.898438 166.972656 C 160.496094 168.988281 161.601562 170.671875 163.238281 171.996094 C 166.699219 174.792969 171.128906 174.273438 175.304688 174.953125 C 179.703125 175.667969 183.085938 177.996094 184.792969 182.210938 C 186.132812 185.523438 187.941406 187.96875 190.695312 190.28125 C 193.4375 192.582031 195.699219 194.796875 196.855469 198.234375 C 198.101562 201.949219 198.25 205.898438 198.472656 209.773438 C 198.710938 213.871094 198.933594 217.957031 198.613281 222.054688 C 198.277344 226.367188 197.832031 230.710938 198.441406 235.027344 C 198.917969 238.417969 201.144531 242.703125 205.230469 240.585938 C 208.878906 238.851562 207.882812 232.203125 207.527344 229.039062 C 207.109375 225.328125 206.351562 221.667969 205.523438 218.027344 C 203.925781 211 203.421875 203.898438 204.285156 196.71875 C 204.507812 194.347656 205.003906 191.996094 205.300781 189.632812 C 205.554688 187.59375 205.730469 185.117188 206.847656 183.335938 C 207.921875 181.628906 209.285156 183.558594 210.128906 184.386719 C 211.398438 185.640625 213.019531 186.144531 214.703125 185.414062 C 218.398438 183.808594 218.089844 179.609375 218.707031 176.179688 C 218.769531 175.835938 218.828125 175.472656 218.890625 175.101562 C 219.699219 188.34375 220.355469 201.601562 221.421875 214.820312 C 222.003906 222.054688 222.765625 229.464844 222.902344 236.71875 Z M 227.433594 166.378906 C 227.292969 167.636719 226.605469 168.429688 225.683594 169.347656 C 224.796875 170.234375 222.828125 168.707031 221.808594 168.59375 C 217.675781 168.140625 216.492188 173.296875 216.019531 176.304688 C 215.691406 178.417969 215.441406 180.394531 214.273438 182.207031 C 213.042969 183.355469 212.285156 182.398438 211.40625 181.441406 C 210.09375 180.027344 208.339844 179.230469 206.445312 179.984375 C 204.597656 180.71875 203.835938 182.570312 203.296875 184.351562 C 202.65625 186.6875 202.488281 189.089844 202.148438 191.476562 C 201.828125 193.722656 201.820312 196.097656 201.617188 198.359375 C 200.996094 205.382812 201.757812 212.066406 203.34375 218.90625 C 204.21875 222.675781 205.183594 227.597656 205.558594 231.453125 C 205.675781 232.683594 205.914062 239.644531 202.660156 238.277344 C 200.945312 237.558594 200.976562 233.679688 200.910156 232.199219 C 200.644531 226.246094 201.121094 220.242188 200.972656 214.277344 C 200.792969 206.847656 201.4375 197.585938 195.914062 191.730469 C 193.152344 188.800781 189.140625 186.8125 187.539062 182.917969 C 186.023438 179.242188 184.152344 176.027344 180.445312 174.222656 C 174.542969 171.351562 163.039062 174.03125 161.929688 165.246094 C 161.632812 162.871094 160.019531 160.179688 157.296875 160.777344 C 155.523438 161.167969 154.28125 162.683594 153.550781 164.269531 C 152.824219 165.84375 153.109375 167.804688 152.359375 169.273438 C 152.324219 169.347656 152.285156 169.421875 152.246094 169.496094 C 150.96875 168.828125 149.566406 168.210938 148.121094 167.683594 C 148.214844 166.867188 148.347656 166.054688 148.585938 165.269531 C 149.347656 162.9375 150.992188 160.941406 151.457031 158.511719 C 152.019531 155.601562 150.851562 152.886719 149.566406 150.351562 C 148.421875 148.085938 147.449219 145.773438 148.339844 143.234375 C 150.144531 138.089844 154.449219 133.105469 158.574219 129.667969 C 160.101562 128.394531 161.632812 127.441406 163.640625 127.226562 C 165.78125 127 167.945312 127.273438 170.09375 127.1875 C 174.222656 126.988281 177.199219 125.089844 180.074219 122.195312 C 183.164062 119.085938 186.644531 116.464844 191.175781 116.164062 C 195.175781 115.898438 198.773438 117.550781 202.113281 119.574219 C 205.796875 121.796875 209.921875 123.042969 213.820312 124.804688 C 216.429688 125.980469 219.066406 127.421875 220.804688 129.761719 C 223.601562 133.519531 224.496094 138.09375 224.957031 142.597656 C 225.285156 145.789062 225.617188 149.78125 226.261719 152.917969 C 227.144531 157.226562 227.917969 161.964844 227.433594 166.378906 Z M 227.433594 166.378906 "/>
</g>
</g>
</svg>
