<?xml version="1.0" encoding="UTF-8"?>
<svg xmlns="http://www.w3.org/2000/svg" xmlns:xlink="http://www.w3.org/1999/xlink" width="375pt" height="374.999991pt" viewBox="0 0 375 374.999991" version="1.2">
<defs>
<clipPath id="clip1">
  <path d="M 108 122.101562 L 258 122.101562 L 258 272.101562 L 108 272.101562 Z M 108 122.101562 "/>
</clipPath>
</defs>
<g id="surface1">
<g clip-path="url(#clip1)" clip-rule="nonzero">
<path style=" stroke:none;fill-rule:nonzero;fill:rgb(41.178894%,33.729553%,56.079102%);fill-opacity:1;" d="M 183 122.140625 C 141.664062 122.140625 108.042969 155.765625 108.042969 197.101562 C 108.042969 238.433594 141.664062 272.058594 183 272.058594 C 224.332031 272.058594 257.957031 238.433594 257.957031 197.101562 C 257.957031 155.765625 224.332031 122.140625 183 122.140625 Z M 217.269531 189.164062 C 214.761719 191.671875 210.699219 191.671875 208.195312 189.164062 L 190.390625 171.363281 L 190.390625 240.90625 C 190.390625 244.449219 187.515625 247.324219 183.972656 247.324219 C 180.425781 247.324219 177.554688 244.449219 177.554688 240.90625 L 177.554688 171.363281 L 159.746094 189.164062 C 158.492188 190.417969 156.851562 191.046875 155.207031 191.046875 C 153.566406 191.046875 151.921875 190.417969 150.667969 189.164062 C 148.164062 186.660156 148.164062 182.59375 150.667969 180.089844 L 179.433594 151.328125 C 180.636719 150.125 182.269531 149.449219 183.972656 149.449219 C 185.671875 149.449219 187.304688 150.125 188.511719 151.328125 L 217.269531 180.089844 C 219.777344 182.59375 219.777344 186.660156 217.269531 189.164062 Z M 217.269531 189.164062 "/>
</g>
</g>
</svg>
